<mxfile host="app.diagrams.net" modified="2024-05-29T22:41:32.180Z" agent="Mozilla/5.0 (Windows NT 10.0; Win64; x64) AppleWebKit/537.36 (KHTML, like Gecko) Chrome/125.0.0.0 Safari/537.36" version="23.1.4" etag="cQjhht7yUYtw2XmuLMUN" type="github">
  <diagram name="Page-1" id="e0j-2WpDGi7toJolEdjf">
    <mxGraphModel>
      <root>
        <mxCell id="0" />
        <mxCell id="1" parent="0" />
      </root>
    </mxGraphModel>
  </diagram>
</mxfile>
